<svg width="72" height="30" viewBox="0 0 72 30" fill="none" xmlns="http://www.w3.org/2000/svg">
<path d="M0.341016 13.26C1.24102 13.26 1.89102 13 2.29102 12.48C2.69102 11.96 2.89102 11.28 2.89102 10.44V5.91C2.89102 5.05 3.00102 4.29 3.22102 3.63C3.44102 2.95 3.80102 2.38 4.30102 1.92C4.82102 1.46 5.50102 1.11 6.34102 0.869999C7.20102 0.629999 8.26102 0.509998 9.52102 0.509998H10.121V4.08H9.37102C8.47102 4.08 7.86102 4.28 7.54102 4.68C7.24102 5.08 7.09102 5.7 7.09102 6.54V10.53C7.09102 11.57 6.95102 12.45 6.67102 13.17C6.39102 13.89 5.83102 14.51 4.99102 15.03C5.83102 15.55 6.39102 16.17 6.67102 16.89C6.95102 17.61 7.09102 18.49 7.09102 19.53V23.52C7.09102 24.36 7.24102 24.98 7.54102 25.38C7.86102 25.78 8.47102 25.98 9.37102 25.98H10.121V29.55H9.52102C8.26102 29.55 7.20102 29.43 6.34102 29.19C5.50102 28.95 4.82102 28.6 4.30102 28.14C3.80102 27.68 3.44102 27.11 3.22102 26.43C3.00102 25.77 2.89102 25.01 2.89102 24.15V19.62C2.89102 18.78 2.69102 18.1 2.29102 17.58C1.89102 17.06 1.24102 16.8 0.341016 16.8V13.26ZM12.5238 7.53C13.1038 7.29 13.7038 7.02 14.3238 6.72C14.9638 6.4 15.5838 6.06 16.1838 5.7C16.7838 5.32 17.3538 4.93 17.8938 4.53C18.4538 4.11 18.9538 3.67 19.3938 3.21H22.5138V24H18.0438V9.03C17.4438 9.43 16.7738 9.8 16.0338 10.14C15.2938 10.46 14.5738 10.74 13.8738 10.98L12.5238 7.53ZM42.3546 8.67C42.3546 9.43 42.2046 10.16 41.9046 10.86C41.6046 11.56 41.2146 12.24 40.7346 12.9C40.2546 13.54 39.7146 14.16 39.1146 14.76C38.5146 15.36 37.9246 15.93 37.3446 16.47C37.0446 16.75 36.7146 17.07 36.3546 17.43C36.0146 17.77 35.6846 18.12 35.3646 18.48C35.0446 18.84 34.7546 19.18 34.4946 19.5C34.2546 19.8 34.1046 20.05 34.0446 20.25H42.9846V24H29.1246C29.0846 23.78 29.0646 23.5 29.0646 23.16C29.0646 22.82 29.0646 22.58 29.0646 22.44C29.0646 21.48 29.2146 20.6 29.5146 19.8C29.8346 19 30.2446 18.26 30.7446 17.58C31.2446 16.88 31.8046 16.23 32.4246 15.63C33.0646 15.03 33.6946 14.43 34.3146 13.83C34.7946 13.37 35.2446 12.94 35.6646 12.54C36.0846 12.12 36.4546 11.72 36.7746 11.34C37.0946 10.94 37.3446 10.55 37.5246 10.17C37.7046 9.77 37.7946 9.37 37.7946 8.97C37.7946 8.09 37.5446 7.47 37.0446 7.11C36.5446 6.75 35.9246 6.57 35.1846 6.57C34.6446 6.57 34.1346 6.66 33.6546 6.84C33.1946 7 32.7646 7.2 32.3646 7.44C31.9846 7.66 31.6546 7.89 31.3746 8.13C31.0946 8.35 30.8846 8.53 30.7446 8.67L28.5246 5.55C29.4046 4.73 30.4246 4.06 31.5846 3.54C32.7646 3 34.0246 2.73 35.3646 2.73C36.5846 2.73 37.6346 2.87 38.5146 3.15C39.3946 3.43 40.1146 3.83 40.6746 4.35C41.2546 4.85 41.6746 5.47 41.9346 6.21C42.2146 6.93 42.3546 7.75 42.3546 8.67ZM60.5454 13.56C60.5454 17.06 59.8754 19.75 58.5354 21.63C57.2154 23.49 55.3854 24.42 53.0454 24.42C50.7054 24.42 48.8654 23.49 47.5254 21.63C46.2054 19.75 45.5454 17.06 45.5454 13.56C45.5454 11.82 45.7154 10.28 46.0554 8.94C46.4154 7.6 46.9254 6.47 47.5854 5.55C48.2454 4.63 49.0354 3.93 49.9554 3.45C50.8754 2.97 51.9054 2.73 53.0454 2.73C55.3854 2.73 57.2154 3.67 58.5354 5.55C59.8754 7.41 60.5454 10.08 60.5454 13.56ZM55.9854 13.56C55.9854 12.52 55.9354 11.58 55.8354 10.74C55.7354 9.88 55.5754 9.14 55.3554 8.52C55.1354 7.9 54.8354 7.42 54.4554 7.08C54.0754 6.74 53.6054 6.57 53.0454 6.57C52.4854 6.57 52.0154 6.74 51.6354 7.08C51.2754 7.42 50.9754 7.9 50.7354 8.52C50.5154 9.14 50.3554 9.88 50.2554 10.74C50.1554 11.58 50.1054 12.52 50.1054 13.56C50.1054 14.6 50.1554 15.55 50.2554 16.41C50.3554 17.27 50.5154 18.01 50.7354 18.63C50.9754 19.25 51.2754 19.73 51.6354 20.07C52.0154 20.41 52.4854 20.58 53.0454 20.58C53.6054 20.58 54.0754 20.41 54.4554 20.07C54.8354 19.73 55.1354 19.25 55.3554 18.63C55.5754 18.01 55.7354 17.27 55.8354 16.41C55.9354 15.55 55.9854 14.6 55.9854 13.56ZM71.6562 16.8C70.7562 16.8 70.1062 17.06 69.7062 17.58C69.3062 18.1 69.1062 18.78 69.1062 19.62V24.15C69.1062 25.01 68.9962 25.77 68.7762 26.43C68.5562 27.11 68.1862 27.68 67.6662 28.14C67.1662 28.6 66.4862 28.95 65.6262 29.19C64.7862 29.43 63.7362 29.55 62.4762 29.55H61.8762V25.98H62.6262C63.5262 25.98 64.1262 25.78 64.4262 25.38C64.7462 24.98 64.9062 24.36 64.9062 23.52V19.53C64.9062 18.49 65.0462 17.61 65.3262 16.89C65.6062 16.17 66.1662 15.55 67.0062 15.03C66.1662 14.51 65.6062 13.89 65.3262 13.17C65.0462 12.45 64.9062 11.57 64.9062 10.53V6.54C64.9062 5.7 64.7462 5.08 64.4262 4.68C64.1262 4.28 63.5262 4.08 62.6262 4.08H61.8762V0.509998H62.4762C63.7362 0.509998 64.7862 0.629999 65.6262 0.869999C66.4862 1.11 67.1662 1.46 67.6662 1.92C68.1862 2.38 68.5562 2.95 68.7762 3.63C68.9962 4.29 69.1062 5.05 69.1062 5.91V10.44C69.1062 11.28 69.3062 11.96 69.7062 12.48C70.1062 13 70.7562 13.26 71.6562 13.26V16.8Z" fill="#F2F2F2"/>
</svg>
